<svg xmlns="http://www.w3.org/2000/svg" id="Layer_1" viewBox="0 0 1200 720"><defs><style>.cls-2,.cls-4{stroke:#000;stroke-width:1.73px}.cls-2{fill:#c8102e}.cls-4{fill:none}</style></defs><path d="M0 0h1200v720H0z" style="fill:#00b140"/><path d="M0 0h1200v360H0z" style="fill:#fff"/><path d="M369.99 170.72c-38.97 5.91-137.73 15.18-176.26 8.86l7.53 18.14c63.77-5.91 124.89 14.76 181.58-6.75z" class="cls-2"/><path d="M218.98 215.01c-24.36-7.17-64.66-48.93-71.3-74.24 19.04 13.07 64.66 29.95 81.04 28.26-5.32 3.8-18.6 13.92-28.79 15.18 4.87 9.28 14.17 21.09 19.05 30.79ZM297.36 202.36c7.09 9.7 44.29 5.69 63.11-6.11l-5.09-8.23-3.76 6.96-5.98-6.54-1.55 10.33-10.41-7.59-1.77 9.07-6.64-8.02-2.43 9.91-9.75-7.6-3.76 10.34a19.77 19.77 0 0 1-4.65-12.44c-3.76 1.47-6.86 6.33-7.31 9.91ZM300.46 170.94c0 2.53 3.1 9.91 8.86 12.02.22-3.16-3.77-10.54-1.33-13.71l5.09 4.64 1.55-8.86 6.86 4.85.66-10.33 7.09 4.64V152.8c-11.52 1.05-25.69 14.34-28.79 18.14ZM1019.13 285.88c-2.99-6.75-12.29-14.97-20.48-20.04 3.2-7.49 8.19-19.34 13.17-31.61-12.4 2.53-38.19 4.4-53.25 2.72 28.34-27 87.69-82.68 107.18-107.99-7.09 34.59-1.77 112.2 12.4 139.2-15.06-5.91-32.46-18.13-42.21-31.63-5.75 19.38-12.79 40.49-16.7 49.14" class="cls-2"/><path d="M466.1 137.82c1.77 8.86 2.21 15.61 8.86 18.14 6.64 2.53 21.26 7.59 30.56 22.78-11.07-2.95-26.57-7.17-27.9 2.95-1.26 9.64 3.17 9.35 10.63 10.96 9.74 2.11 19.04 13.5 19.49 28.69-7.97-4.64-19.05-8.44-26.13-8.44s-9.08 1.26-10.85 9.7c-2.92 13.91 2.44 14.76 9.08 15.61 6.64.84 20.82 7.17 21.7 30.37-7.53-6.33-22.63-9.85-31.89-11.39-5.09-.84-5.98 1.69-6.64 10.54-.67 8.86.44 11.81 9.3 14.34s19.05 8.86 21.7 22.36c-8.42-3.8-21.7-2.53-25.69-.84s-6.14 11.11 2.27 29.25c18.11-5.84 36.8-9.71 55.75-11.54 41.86-4.2 31.89-32.06 31.89-75.93s92.11-92.8 232.06-170.41c-33.66 81.83 12.4 74.24 38.09 64.96s85.92-32.9 132.86-52.31c-64.66 41.34-97.43 85.21-40.74 104.61-72.63 21.93-106.29 81.83-66.43 119.8-27.18-9.17-64.85 8.13-80.62 32.22 28.34-2.53 83.28 4.05 116.94 13.33 32.05 8.84 84.96-1.51 89.95-28.74.26-1.37.4-2.77.4-4.17 0-9.49-2.44-16.66-6.19-21.88-8.23-11.49-22.66-13.98-30.57-13.98-11.52 0-23.47 4.64-23.47 12.65s7.09 11.39 21.26 11.39c7.75 0 19.7 1.28 32.79-10.07 3.74 5.22 6.19 12.39 6.19 21.88q-.015 2.07-.42 4.11A85.16 85.16 0 0 1 940 338.99c-28.34 0-54.91-10.97-54.91-40.49s31.88-46.4 57.57-46.4c35.43 0 85.03 13.5 85.03 67.49 0 68.34-94.07 100.3-149.87 100.3 9.36 7.48 19.89 14.44 31.19 18.66 39.52 14.76 74.4 32.9 86.8 60.74-15.06 0-39.86-11.81-51.37-23.62 31.89 37.12-6.79 105.4-2.66 128.23 4.43 24.46 34.54 9.28 34.54 28.26 0 16.87-17.72 13.92-24.36 6.33-6.65-7.59-27.94-13.97-38.97-6.33-9.74 6.75-24.8 10.12-31.44 3.37s-31-4.22-41.19 5.06-24.41 10-28.79 2.95c-4.68-7.55-3.49-16.73 15.46-19.91-8.42-8.44-34.06 5.99-38.49-10.04-3.18-11.52 3.54-16.87 25.68-15.19-2.21-5.48-18.6-8.01-16.39-19.4s15.02-18.44 30.12-1.69c40.3 44.71 58.9 19.83 72.63.42-4.43-10.13.44-16.87 8.86-23.2-4.43-7.17-1.77-17.29 1.33-24.04-6.64-3.8-10.63-20.67-3.54-26.58-5.76 0-14.62-6.33-14.62-17.29-7.9 4.8-18.03 3.77-24.8-2.53-8.42 4.64-30.56 5.48-40.3-4.64-13.29 5.06-36.76 3.8-42.96-5.91-11.69 2.96-33.22-6.75-37.64-17.29a46 46 0 0 1-19.42-5.9c-17.71 12.66-41.7 37.12-17.79 55.68 23.92 18.56 73.52 3.37 74.4 49.77-11.52-9.28-32.77-6.75-39.86-16.03-23.91 33.74-58.46 64.54-109.39 77.19 7.53 4.64 21.26 5.06 26.57 4.64 11.04-.88 20.37 8.02 11.96 18.56-8.42 10.55-25.69 1.69-35.87-7.17-14.66-12.75-24.36-5.49-28.34-2.53-3.99 2.95-9.3 4.64-16.39-2.11s-13.73-2.11-17.27 2.11c-5.76 6.85-19.04-8.86-40.3 9.7-10.22 8.93-34.54-2.53-24.8-15.61-10.19 2.53-28.2-11.56-13.29-25.31 13.73-12.65 39.86 16.45 61.12 8.01-4.78-5.79-14.73-16.52-35.43-18.98-10.63-1.27-12.51-13.04-7.53-21.51 6.2-10.54 25.25-3.37 38.09 13.08 10.12 12.96 23.47 13.07 37.2 10.54 9.64-6.12 24.58-6.33 31.22-4.22 0-6.33 10.4-11.81 18.38-11.81-.44-8.44 2.21-16.03 15.06-18.14 1.07-.18 2.18-.35 3.32-.45-8.95.41-17.62-3.15-23.71-9.72-17.74 4.33-37.39-4.01-40.28-19.97-28.04-1.95-30.83-30.25-23.92-39.46.56-.76 1.19-1.47 1.89-2.11-8.35 6.28-19.01 9.18-32.2 4.61-12.4 16.85-33.98 24.21-54.09 18.44a40.95 40.95 0 0 1-23.85 17.04c.83 10.22-1.38 21.81-14.87 35.42 3.54-18.56-21.26-24.47-15.94-54.84-1.77 21.93-68.65 58.21-79.28 106.3 9.75 4.22 20.38 7.17 27.02 5.91 16.71-3.18 22.14 13.5 17.27 20.25s-18.6 10.12-24.36 4.22-17.72 2.11-23.47-8.86c-5.76-10.97-21.7-7.17-28.34 0s-28.79-9.28-44.73 7.17c-5.96 6.15-26.13 12.66-38.09 9.28s-19.04-15.19-15.06-21.51c-7.97-7.17-8.08-15.96-.44-23.62-2.88-10.76 6.51-32.01 22.36-23.62 9.96 5.27 45.28 30.16 76.06 1.69 26.69-25 11.14-45.02 28.23-47.67-2.08-10.15 4.43-22.78 11.52-25.31a18.42 18.42 0 0 1-1.05-13.52c-4.02-.31-7.99-1.18-11.77-2.58a158.4 158.4 0 0 1-40.77 5.98c0 10.12-12.4 34.59-23.03 46.4-3.54-92.8-92.12-102.08-104.08-175.9-.44 10.97-12.4 21.93-13.73 31.21s-7.09 16.45-17.72 12.24c-10.63-4.22-13.29-21.94-2.66-24.47s8.64-19.4 15.28-21.51 7.75-8.86 5.09-17.29c-2.66-8.44 1.33-18.56 3.99-24.89s-1.33-16.87-10.63-20.67-12.4-13.07-8.86-21.09c-9.74-6.75-6.96-21.33 6.2-24.04 16.39-3.38 15.94 22.35 25.24 25.31-1.33-5.06.44-14.76 4.43-21.09-5.32-10.97 1.33-19.82 11.96-19.82 18.6 0 12.4 29.53 7.97 38.81 6.2-8.44 15.95-18.14 23.47-11.39 7.53 6.75 6.3 20.84-1.77 26.99-6.64 5.06-20.37 13.08-16.39 21.94 7.97 13.5 12.84 29.53 13.73 50.2 11.07 8.02 18.16 17.29 18.16 24.89 7.3.42 21.3 6.2 23.25 14.34 8.86-.85 22.08.85 25.91 8.65 2.88-1.48 10.56-1.97 15.22-1.55a28.6 28.6 0 0 1 6.49-18.06c-15.06-16.03-14.62-41.34.89-51.46-4.41-10.51-2.66-29.95 11.96-40.07-.32-10.55 2.66-24.46 17.27-33.32-2.21-11.39 5.32-27 14.62-27.84-2.22-10.97-.54-24.51 12.3-30.83a15.8 15.8 0 0 1-4.34-11.83c-22.53 4.64-31.33 17.77-38.52 30.01-.89-5.06-2.21-11.81-5.32-16.87 0 13.07-10.19 17.72-10.63 35.85-7.53-7.59-10.19-19.83-9.75-28.26.35-6.75-11.51-13.07-7.97-24.89 17.72 15.61 53.59-18.56 84.59-7.59-30.56-61.16-52.7-31.64-68.2-21.09s-26.57-5.06-24.8-15.19c-20.82-4.64-45.62-3.8-72.63 1.27 19.93-24.89 66.87-35.85 101.42-33.32 15.06-26.57 33.22-22.78 50.93-20.25 11.58 1.66 25.11 1.69 38.53 1.05 8.42-22.36 57.57-24.67 62.45-42.39 4.43 3.37 1.74 16.07-2.69 27.03 12.8-3.65 23.8-7.55 27.49-15.22 2.21 7.17-1.33 26.57-6.2 32.48a51.3 51.3 0 0 1 15.5-1.69c-15.5 8.44-34.98 21.09-38.08 23.2s-4.87 6.33 3.1 10.54c-8.86 1.69-33.66 10.13-43.84 3.38" class="cls-2"/><path d="M129.52 251.92c11.73-8.02 27.78-2.09 31.22 9.7 2.21 7.59-11.24 13.23-12.4 6.12-1.55-9.49-7.97-15.4-18.82-15.82ZM175.54 227.4c13.66-4.47 27.25 5.58 26.99 17.82-.16 7.88-14.75 9.6-13.72 2.47 1.37-9.52-3-16.93-13.27-20.29ZM226.33 248.99c13.03 5.94 15.3 22.18 6.11 30.74-5.92 5.51-17.58-3.01-11.6-7.41 7.99-5.86 10.33-14.07 5.49-23.33ZM122.6 419.49c11.37 8.48 27.66 3.21 31.63-8.43 2.55-7.5-10.64-13.67-12.12-6.61-1.97 9.42-8.65 15.06-19.51 15.04ZM202.59 590.07c4.76-12.99 21.47-16.93 31.4-9.17 6.39 5-1.21 16.98-6.45 11.8-7-6.91-15.82-8.23-24.95-2.63ZM187.65 624.99c.79-13.73 20.12-22.36 31.92-17.53 7.6 3.11 3.79 16.63-2.76 13.04-8.74-4.79-22.02-3.3-29.16 4.49ZM208.65 657.4c-4.95-12.92 5.34-26.05 18.19-26.04 8.27 0 10.36 13.86 2.86 13.02-10.01-1.12-17.71 3.18-21.05 13.02ZM416.94 645.87c1.71-13.66-11.48-24.19-23.98-21.37-8.05 1.82-6.75 15.76.35 13.3 9.48-3.28 18.01-.77 23.63 8.08ZM496.84 650.23c-2.96-13.46 9.2-25.06 21.91-23.3 8.19 1.13 8.18 15.13.87 13.27-9.74-2.48-18 .74-22.79 10.03ZM696.08 646.94c1.11-13.72-12.53-23.71-24.9-20.4-7.96 2.14-6.05 16.01.94 13.27 9.32-3.66 17.96-1.49 23.96 7.12ZM473.18 621.66c-2.12-13.6 12.05-25.31 24.64-22.84 8.1 1.6 5.91 16.39-1.26 14.12-9.57-3.03-18.02-.28-23.38 8.71ZM491.73 582.52c.79-13.73 17.15-22.49 28.95-17.65 7.6 3.11 2.33 17.18-4.22 13.59-8.74-4.8-17.59-3.73-24.74 4.06ZM796.66 657.4c-2.96-13.46 9.2-25.06 21.91-23.3 8.19 1.13 8.18 15.13.88 13.28-9.74-2.48-18 .74-22.79 10.02ZM994.56 650.95c3.07-13.44-9.01-25.12-21.74-23.44-8.19 1.08-8.29 15.08-.97 13.27 9.76-2.41 18 .86 22.72 10.18ZM771.17 626.2c-2.09-13.61 10.81-24.47 23.39-21.96 8.1 1.61 7.18 15.58 0 13.3-9.56-3.05-18.02-.32-23.4 8.66ZM778.54 589.06c.27-13.75 14.85-22.47 26.83-18.04 7.71 2.85 4.42 16.49-2.26 13.12-8.92-4.49-17.72-3.11-24.56 4.92Z" class="cls-2"/><path d="M828.36 139.93c-33.66 10.97-163.86 59.9-187.78 67.49s-36.31 9.28-50.49 40.49" class="cls-4"/><path d="M765.48 103.65c-85.03 52.31-154.12 97.86-173.6 140.89-19.49 43.02-18.16 69.18-65.55 76.77M389.93 402.3c21.26-23.62 65.54-52.31 108.06-53.99a254.3 254.3 0 0 0-21.26 40.49" class="cls-4"/><path d="M475.84 404.83c10.63-13.5 37.2-42.18 54.03-53.99-7.97 22.78-21.26 76.77-14.17 113.89 4.43-35.43 23.91-90.27 44.29-121.48 15.06 34.59 35.43 83.52 35.43 114.74 4.43-37.12-4.43-101.24-17.71-129.08 36.31 17.71 81.49 68.33 100.97 99.55-13.29-43.87-58.46-97.02-82.38-113.89 59.35 10.12 145.26 46.4 177.15 73.4-52.26-46.4-116.03-82.68-161.2-99.55 70.86-5.9 203.72 9.28 241.81 23.62-55.8-30.37-170.95-46.4-240.04-42.18 72.63-29.53 201.95-63.27 306.47-77.61-79.72 4.22-182.46 24.47-287.87 47.24 46.94-30.37 192.21-87.74 226.75-97.86M411.18 119.69c6.33-19.91 32.13-25.19 53.11-31.18M446.17 134.45c-17.71-1.27-20.86-7.26-11.07-13.92 6.2-4.22 19.04-10.97 27.9-11.81-2.22-.42-8.42-2.11-11.52-2.53 9.3-3.8 24.8-9.28 30.11-14.34" class="cls-4"/><path d="M425.57 102.39c-6.78.59-13.89 1.12-21.04 1.47M379.74 201.52c-4.32.22-8.62.76-12.86 1.62M307.71 416.57a48.67 48.67 0 0 0 12.24 32.97c7.09 7.59 50.49 10.12 52.26-4.22M314.19 398.51c15.06 16.03 63.77 6.33 63.77-5.48M315.08 347.05c5.31 12.65 62 24.04 62.89 9.28M327.04 306.97c.44 14.76 52.07 24.35 53.59 13.5M344.31 273.65c2.21 11.39 36.32 22.36 41.19 17.29M358.92 245.81c1.61 8 26.13 15.18 34.54 12.23M371.22 214.98c5.02 5.81 14.77 11.22 31.54 13.96M286.29 155.12c.44-8.86 9.3-10.12 7.97-18.98M379.3 191.4c3.1 4.64 11.07 14.34 11.96 21.51 4.43-3.38 7.97-10.55 9.3-13.92a27.7 27.7 0 0 1 8.86 13.5c1.77-5.06 4.87-13.92 5.32-19.4 6.34 1.41 12.26 4.3 17.27 8.44.89-5.48-1.77-12.65-6.2-15.61 4.9.2 9.76-.81 14.17-2.95-3.1-4.22-7.97-9.7-12.84-12.23 4.43-1.27 10.63-6.33 13.29-8.44-3.99-1.69-11.07-5.49-15.5-7.59 2.66-2.53 4.87-7.59 6.2-11.39M305.78 122.85c-2.88 0-4.21 6.33 1.11 10.33 3.82 2.88 3.76 14.76-3.1 17.72" class="cls-4"/><path d="M409.41 212.48c-19.48 43.02-37.42 124.65-31.22 183.7M399.22 476.96c0 8.86 14.62 10.55 14.17-10.54" class="cls-4"/><path d="M412.07 476.96c1.77 7.59 16.83 9.28 13.73-13.08" class="cls-4"/><path d="M405.87 482.87c.89 16.45 11.96 15.61 12.84 0M426.24 471.48c4.43 10.12 16.83 5.06 13.29-17.29" class="cls-4"/><path d="M439.97 463.89c4.87 8.44 16.39 1.69 17.72-13.07M382.4 417.07c-7.6 7.93-16.32 25.72-5.76 42.6 6.2 9.91 23.25 15.4 25.02 9.49M376.64 459.67c-6.86 1.06-16.96 15.07-11.96 28.47 3.55 9.49 23.92 15.19 27.02 8.23M584.79 471.48c22.14 2.53 51.37-11.81 53.15-40.49" class="cls-4"/><path d="M635.27 444.48c12.4 7.59 38.09 10.12 48.72-9.28M646.79 450.39c-11.52 25.31-21.95 52.2 1.77 71.71 19.49 16.03 33.96-7.87 57.58 16.03 7.09 7.17-1.33 20.67-72.63 59.9M292.49 418.12c4.65 9.49 4.21 28.05-4.65 25.52M222.52 627.98c15.06-21.93 32.84-4.21 45.61-8.02" class="cls-4"/><path d="M340.1 126.64c-2.66 6.12 4.41 14.68 11.07 15.4 7.75.84 18.82-4.01 16.39-11.81" style="stroke:#000;stroke-width:1.73px;fill:#fff"/><path d="M332.35 127.28c3.99-5.27 50.49 11.39 69.09-.42M181.77 284.62c-1.77 3.79-1.11 14.97 5.76 21.09M510.38 624.6c3.54-4.22 16.66-8.47 26.35-6.11 9.52 2.32 26.57-.84 37.64-5.06M409.41 212.48c-4.43 41.34 5.54 104.82 31 133.09M396.04 249.19c.73 36.78 10.19 80.46 28.88 104.5M385.8 289.27c3.68 27.84 11.97 55.83 25.06 74.01M379.38 331.52c4.42 16.52 10.65 31.68 18.74 43.08M377.1 371.5c2.49 5.32 5.44 10.4 8.82 15.2" class="cls-4"/><path d="M408.52 238.21c-1.33 13.08-9.74 23.2-17.27 29.11M409.41 256.36c-1.33 13.07-10.63 24.89-22.81 30.58M412.07 274.49c-1.33 13.07-14.62 29.11-29.67 36.27M415.61 292.63c-1.33 13.08-18.6 32.9-36.18 39.26M421.15 310.77c-5.09 17.72-25.46 38.39-43.4 43.03M429.12 328.91c-1.33 13.07-28.57 39.65-52.04 47.24M266.59 409.48c2.88 12.02-6.64 22.99-11.52 20.04" class="cls-4"/><path d="M317.29 451.24c-46.06-9.28-80.31-24.74-99.2-60.74-4.87-9.28 7.97-11.81 7.09-20.25M211.45 320.05c-7.97-13.5-9.75-28.26-5.32-37.54" class="cls-4"/><path d="M243.34 395.13c0 7.59-9.52 17.29-12.85 13.71M319.95 449.55c-5.31 12.28 4.96 35.73 27.49 43.8M364.68 488.14a14.27 14.27 0 0 0-5.47 7.78M382.84 513.24c-3.99 6.33-19.49 1.69-22.59-3.8M320.5 582.42c-18.78 17.59-37.91 18.58-60.78 21.09-23.03 2.53-29.45-7.38-37.64.84M470.53 450.39c2.66 11.81 1.77 23.62-8.86 41.34-5.87 9.77-.31 20.32.7 32.92M572.5 484.55c10.15-7.63 16.85-20.22 20.25-29.95M540.3 489.16a48.9 48.9 0 0 0 4.62-52.27M486.22 507.6c6.81-10.01 10.88-24.27 10.88-42.87M348.74 534.75c1.77 8.65 15.5 12.44 17.72 8.23" class="cls-4"/><path d="M458.57 433.1c0 8.44-8.86 14.76-15.5 9.7.89 12.23-8.41 16.03-15.06 10.13 1.33 17.29-13.73 18.98-23.47 5.48-11.07 51.88-48.27 90.69-50.93 116-.89 5.91-24.58 4.22-18.38-13.07M619.33 480.76c-13.29-1.58-36.65-5.47-46.83 3.79M624.65 520.41c-12.28 4.64-22.2 6.27-30.11 5.72M658.52 555.82c12.24-.46 24.86-8.21 29.9-27.39M634.82 546.1a36.69 36.69 0 0 0 23.93-18.51" class="cls-4"/><path d="M695.06 560.06c-7.71-2.32-23.99-5.38-36.54-4.25M651.22 588.33c4.87-2.53-3.1-13.92-11.07-13.92M558.21 607.31c11.28-4.61 22.1-10.25 32.33-16.87M621.77 586.22c6.01 1.91 14.84 9.28 11.73 11.81M678.68 428.46c7.09 11.81 20.37 19.4 38.09 11.81 1.25 3.56 5.46 7.21 10.7 10.12M776.55 425.5c8.86 6.75-6.64 31.64-29.67 30.79" class="cls-4"/><path d="M900.55 577.78c3.07 7.02 14.62 6.33 19.05 0 5.06-7.23 14.17-29.53 8.86-74.24s-50.49-50.62-102.75-60.74-65.55-26.15-76.17-55.68" class="cls-4"/><path d="M909.41 554.58c4.43 7.17 16.83 5.48 18.6-1.69M910.74 530.54c6.65 3.8 19.49 2.53 19.04-5.91M907.2 503.96c5.76 0 21.26.84 20.37-5.91M892.58 486.67c4.87-3.38 18.6-17.72 11.07-21.94M867.78 484.14c8.41-4.64 17.71-28.69 7.53-30.79M827.48 479.5c13.29-5.06 25.69-31.22 16.83-32.9M784.52 473.59c21.7-5.48 28.34-33.32 19.93-35.85M814.19 598.45c22.6 1.72 34.99 13.08 43.84 17.72M808.88 369.4c20.59-1.9 40.83 28.1 68.9 50.52M1035.94 236.53c3.87-13.07 7.12-25.35 8.55-32.48M827 623.68c5.29-.84 10.63-1.23 15.98-1.18M1027.65 193.92c-2.99 8.08-9.43 24.51-15.84 40.31M470.58 332.85c-39.06 12.83-79.51 37.45-105.46 82.95 14.17 3.37 41.63 0 54.03-4.22.89 10.97.89 25.31.89 34.59 12.4-9.28 27.46-22.78 38.97-26.15-.89 10.96-.89 30.37-.89 37.96 16.83-16.87 48.72-18.56 57.58 6.75 7.09-37.12 65.54-38.8 79.71-6.75 15.95-29.53 56.69-40.5 83.26-29.53 11.51-31.22 62-48.09 94.77-40.49-10.86-14.3-8.92-30.11-.02-43.7" class="cls-4"/><path d="m345.34 128.09 17.37 3.06s-12.23 15.6-17.37-3.06Z" style="stroke:#000;stroke-linejoin:round;stroke-width:2.54px"/><path d="M1188 12v696H12V12zm12-12H0v720h1200z" style="fill:#e6e8ea"/></svg>